<svg width="48" height="48" viewBox="0 0 48 48" fill="none" xmlns="http://www.w3.org/2000/svg">
<g clip-path="url(#clip0_3_219)">
<mask id="mask0_3_219" style="mask-type:alpha" maskUnits="userSpaceOnUse" x="0" y="0" width="48" height="48">
<path d="M48 24C48 10.7452 37.2548 0 24 0C10.7452 0 0 10.7452 0 24C0 37.2548 10.7452 48 24 48C37.2548 48 48 37.2548 48 24Z" fill="white"/>
</mask>
<g mask="url(#mask0_3_219)">
<path d="M48 0H0V48H48V0Z" fill="#45AFEA"/>
<path d="M57.2173 21.7385C52.2306 8.03746 37.0811 0.973161 23.3801 5.95992C9.6791 10.9467 2.6148 26.0961 7.60157 39.7971C12.5883 53.4982 27.7378 60.5625 41.4388 55.5757C55.1398 50.5889 62.2041 35.4395 57.2173 21.7385Z" fill="#98DAFF"/>
<path d="M14.6667 22.6666C17.3334 24 20 24 22.6667 22.6666" stroke="#064061" stroke-width="2.22222" stroke-linecap="round"/>
<path d="M15.3333 16C15.3333 15.2636 14.8856 14.6666 14.3333 14.6666C13.7811 14.6666 13.3333 15.2636 13.3333 16C13.3333 16.7363 13.7811 17.3333 14.3333 17.3333C14.8856 17.3333 15.3333 16.7363 15.3333 16Z" fill="#064061"/>
<path d="M23.3333 16C23.3333 15.2636 22.8856 14.6666 22.3333 14.6666C21.7811 14.6666 21.3333 15.2636 21.3333 16C21.3333 16.7363 21.7811 17.3333 22.3333 17.3333C22.8856 17.3333 23.3333 16.7363 23.3333 16Z" fill="#064061"/>
</g>
</g>
<defs>
<clipPath id="clip0_3_219">
<rect width="48" height="48" fill="white"/>
</clipPath>
</defs>
</svg>
